<svg width="157" height="126" viewBox="0 0 157 126" fill="none" xmlns="http://www.w3.org/2000/svg">
<g clip-path="url(#clip0_133_387)">
<path d="M23.1798 44.5066C23.0402 43.9328 23.0904 43.3386 23.3251 42.7862C23.5599 42.2339 23.9706 41.7436 24.5142 41.3668C25.2348 40.7826 26.0994 40.3329 27.0495 40.0481H28.0027C28.0027 41.3354 28.0027 42.607 28.0027 43.8315C28.0027 45.056 28.0027 46.1236 28.1552 47.2382H27.5452C26.651 47.0019 25.8127 46.6408 25.067 46.1707L24.6858 45.9352C24.0174 45.5978 23.4915 45.099 23.1798 44.5066Z" fill="#F9ECEC"/>
<path d="M80.8638 111.887C82.5604 111.086 84.9242 109.909 87.7073 108.339L87.9361 108.621C92.1471 108.454 96.281 107.628 100.117 106.188C102.957 105.105 107.513 102.938 108.505 103.833C108.867 104.302 109.058 104.847 109.057 105.403C109.064 105.693 109.032 105.982 108.962 106.266C108.008 108.252 106.669 110.097 104.997 111.73V112.201C96.9725 113.168 88.8159 113.126 80.8066 112.075L80.8638 111.887Z" fill="#F9ECEC"/>
<path d="M100.384 52.984C101.175 53.5921 101.821 54.3161 102.29 55.1191H103.148C103.148 56.0924 103.148 57.0972 103.148 58.1176H102.938C101.626 58.1177 100.354 57.7463 99.3354 57.0658C98.8682 56.7561 98.4905 56.3646 98.2298 55.9198C97.914 55.0063 97.8489 54.0464 98.0392 53.1096C98.0392 52.3718 98.1535 52.1991 98.3251 52.1206C98.8017 51.838 99.9645 52.7015 100.384 52.984Z" fill="#F9ECEC"/>
<path d="M101.489 16.6252C103.929 18.4463 106.751 17.4101 112.565 18.4463C113.327 18.5876 114.052 18.7446 114.719 18.9172C113.747 19.5657 113.074 20.4688 112.812 21.4762C112.611 22.3186 112.71 23.1911 113.098 23.988V24.616C112.431 25.0084 111.745 25.448 111.001 25.919C109.915 26.6097 108.752 27.3947 107.494 28.2581C104.73 30.142 101.585 32.4341 97.9626 35.1971C97.5623 34.2237 97.1239 33.219 96.6473 32.2143C96.1707 31.2095 95.5035 29.828 94.8935 28.5878C94.0167 26.8295 92.9873 24.9927 92.0723 23.0618L92.282 22.9833C92.1443 21.1291 92.8484 19.2989 94.2575 17.8483C95.6667 16.3977 97.6802 15.4302 99.907 15.1338H100.06C100.399 15.7103 100.887 16.2191 101.489 16.6252V16.6252Z" fill="#F9ECEC"/>
<path d="M45.7503 41.1627C39.7265 42.8425 36.6575 44.3025 36.4287 43.8943C36.4287 43.8001 36.5621 43.5489 36.9815 43.2036C38.9822 41.7512 41.2545 40.5743 43.7106 39.7184C50.4969 37.3164 57.4739 37.8502 57.5501 38.3526C57.4929 38.7451 53.4707 38.9962 45.7503 41.1627Z" fill="#F9ECEC"/>
<path d="M76.803 113.001C76.3515 113.624 75.7929 114.19 75.1446 114.681C73.1049 116.251 70.398 116.863 70.0358 116.439C69.6736 116.015 70.5695 115.717 70.3217 115.152C70.1921 114.96 70.0118 114.793 69.7942 114.666C69.5765 114.538 69.3268 114.452 69.0636 114.414L68.9492 113.598C69.8833 113.598 70.8555 113.409 71.6561 113.268C73.3103 113.027 74.946 112.707 76.5552 112.31L76.803 113.001Z" fill="#F9ECEC"/>
<path d="M98.0777 35.2128C101.7 32.4498 104.845 30.1577 107.609 28.2738L108.143 28.7919C107.754 29.6081 107.576 30.4824 107.622 31.3584C107.668 32.2345 107.936 33.0929 108.41 33.8784C109.62 34.8691 110.893 35.8071 112.222 36.6885C113.252 37.4106 113.823 37.8188 114.357 37.6775C114.694 37.5087 114.95 37.2495 115.082 36.9436C115.214 36.6377 115.214 36.3037 115.082 35.9977C114.815 35.2913 113.938 35.3541 112.966 34.6319C111.949 33.7072 111.332 32.5315 111.212 31.288C110.962 30.2548 110.897 29.1969 111.021 28.1483C111.081 27.5071 111.208 26.8715 111.402 26.2487L111.059 25.9033C111.803 25.4323 112.489 24.9928 113.156 24.6003C115.347 23.2397 117.667 22.0269 120.095 20.9738L120.19 21.1151C119.773 21.8805 119.683 22.7398 119.936 23.5526C120.189 24.3654 120.769 25.0835 121.582 25.5893C122.105 25.7787 122.669 25.8765 123.24 25.8765C123.811 25.8765 124.376 25.7787 124.899 25.5893C126.007 25.1759 126.894 24.445 127.396 23.5327H127.72C127.72 24.2549 127.72 25.1026 127.911 26.1074C128.124 28.555 128.493 30.9917 129.016 33.4074C129.016 33.4074 129.016 33.5173 129.016 33.5801C129.512 35.9035 129.97 37.442 130.122 38.0229C130.504 39.6851 130.714 41.3709 130.751 43.0623C130.751 44.6322 130.751 46.3748 130.637 48.2743C130.26 53.2637 129.296 58.2112 127.758 63.0471H127.358C126.462 61.4772 125.738 61.2103 125.242 61.226C124.941 61.2418 124.661 61.3547 124.46 61.54L121.086 59.3264C122.268 59.3264 123.183 57.4739 123.488 56.6733C123.488 56.4064 123.946 55.4174 123.488 55.229C123.031 55.0406 122.516 55.8883 120.724 56.5948C119.923 56.9088 119.618 56.9088 119.447 57.2071C119.433 57.2694 119.433 57.3332 119.447 57.3955L115.101 56.8774C115.793 55.8377 115.984 54.6211 115.634 53.4707C115.149 52.2265 114.219 51.1321 112.966 50.3309C111.597 49.3738 109.989 48.6765 108.256 48.2885C106.523 47.9006 104.708 47.8314 102.939 48.086L102.252 48.1802C101.315 43.7674 99.8987 39.4328 98.0205 35.2285L98.0777 35.2128Z" fill="#F8DCDC"/>
<path d="M23.6188 72.0269C22.9961 71.0408 22.1996 70.1362 21.255 69.3423V68.9656C23.4282 68.9656 25.6776 69.1854 27.9079 69.3581V69.7348C27.638 71.9279 27.8708 74.1433 28.5942 76.2656C29.3376 78.4635 29.8904 78.4007 30.3479 80.0648C31.587 84.6332 28.1938 88.2439 29.7951 89.2487C30.6148 89.7667 31.7014 88.9033 32.5592 89.4057C34.5608 90.4732 31.3582 95.1986 33.0167 97.1452C34.2176 98.5739 38.4305 99.0448 51.2787 95.1044L51.7362 94.7119C58.1025 100.605 65.3537 105.806 73.3151 110.191C73.7594 110.714 74.325 111.16 74.9793 111.502C75.6337 111.844 76.3638 112.076 77.1277 112.185L76.632 112.31C75.0229 112.707 73.3871 113.027 71.7329 113.268V113.033C71.6953 112.618 71.554 112.214 71.3178 111.847C71.0816 111.479 70.7556 111.156 70.3604 110.898C69.2167 110.27 68.1682 110.898 66.6623 110.756C63.2119 110.505 62.7354 106.941 59.6663 106.565C57.5694 106.313 56.7688 107.836 53.7569 108.857C50.4516 109.852 46.8255 109.852 43.5202 108.857L43.0818 109.5L40.8896 108.7C37.6196 107.462 34.4374 106.073 31.3582 104.539C26.2773 101.95 21.5202 98.9526 17.1566 95.591L17.3663 95.3713C14.7737 84.7431 16.2034 81.4934 18.1097 80.5671C19.3957 80.0888 20.6057 79.4825 21.7125 78.7617C22.2219 78.3894 22.682 77.9737 23.085 77.5215C23.6272 76.9856 24.0354 76.3667 24.286 75.7004C24.6456 74.4508 24.4067 73.1351 23.6188 72.0269Z" fill="#F9ECEC"/>
<path d="M86.5442 75.8888C86.2392 75.6219 86.9635 75.0725 86.6395 74.5073C86.3154 73.9421 85.1335 74.2404 84.3329 73.5968C83.1701 72.6705 83.6848 70.457 83.6848 70.457C83.6848 70.457 83.6848 69.4679 84.066 69.3266C84.4473 69.1854 84.7904 69.5464 84.8857 69.6249C87.1542 71.3047 94.6077 73.7381 94.0167 75.4021C93.9189 75.5913 93.7675 75.7585 93.5751 75.8896C93.3828 76.0207 93.1551 76.1119 92.9111 76.1557C92.6169 76.2503 92.2903 76.2503 91.9961 76.1557C91.2717 75.8888 91.4623 74.7899 90.7951 74.5858C90.452 74.5858 90.2233 74.7585 89.4989 75.1196C88.9886 75.3859 88.4455 75.607 87.8786 75.7789C87.2876 75.9673 86.7539 76.0458 86.5442 75.8888Z" fill="#F9ECEC"/>
<path d="M115.043 105.733C117.069 103.044 118.448 100.059 119.104 96.9411C119.237 96.3132 119.256 96.062 119.39 95.6381C120.514 92.2628 125.585 90.5203 130.084 89.5626H130.274C130.274 89.7196 130.141 89.8766 130.084 90.0493C127.774 92.8225 125.71 95.7291 123.907 98.7465C122.154 101.415 119.923 104.869 117.388 108.951L117.674 109.595C116.702 109.893 115.768 110.144 114.776 110.395L114.376 109.5C114.225 108.589 114.283 107.662 114.548 106.769C114.662 106.376 114.815 106.047 114.929 105.764L115.043 105.733Z" fill="#F9ECEC"/>
<path d="M112.279 36.6885C110.95 35.8071 109.677 34.8691 108.467 33.8784C107.993 33.0929 107.725 32.2345 107.679 31.3584C107.633 30.4824 107.811 29.6081 108.2 28.7919L107.666 28.2738C108.924 27.4104 110.087 26.6254 111.174 25.9347L111.517 26.2801C111.322 26.9029 111.195 27.5385 111.135 28.1796C111.012 29.2283 111.076 30.2862 111.326 31.3194C111.447 32.5629 112.063 33.7386 113.08 34.6633C114.052 35.3855 114.986 35.3227 115.196 36.0291C115.31 36.3396 115.29 36.6729 115.141 36.9731C114.992 37.2733 114.722 37.522 114.376 37.6775C113.88 37.8188 113.309 37.4106 112.279 36.6885Z" fill="#F9ECEC"/>
<path d="M99.1261 82.8121C99.9839 80.2217 100.727 77.5529 101.337 74.837H101.547C104.189 75.4045 106.931 75.5852 109.649 75.3708C111.073 75.2895 112.475 75.0301 113.804 74.6015C115.406 74.0677 115.711 73.6282 116.664 73.4712C117.617 73.3142 119.523 73.4712 122.097 75.669L122.344 75.7632C113.004 92.2315 97.6583 102.781 87.6885 108.339C84.9054 109.909 82.5416 111.086 80.845 111.887V112.075H80.2732L80.0635 111.651C86.4685 109.045 94.3414 97.2865 99.1261 82.8121Z" fill="#F9ECEC"/>
<path d="M55.9302 48.1173L56.1589 46.7672H56.2923C59.5391 48.3316 63.1049 49.3956 66.8149 49.907C69.2855 50.2272 71.7909 50.3273 74.2875 50.2053C79.7966 50.0483 83.3994 49.9541 87.1929 48.1487C90.4914 46.5749 93.1099 44.1913 94.6822 41.3314C96.2545 38.4714 96.7019 35.2782 95.9617 32.1986H96.7242C97.2008 33.2033 97.6392 34.208 98.0395 35.1814C99.9178 39.3857 101.334 43.7203 102.271 48.133C102.737 50.4241 103.036 52.7359 103.167 55.0563H102.31C101.841 54.2533 101.194 53.5293 100.403 52.9212C99.9839 52.6072 98.8211 51.7438 98.2874 52.0107C98.1158 52.0892 98.0586 52.2619 98.0014 52.9997C97.8112 53.9365 97.8763 54.8964 98.192 55.8098C98.4528 56.2547 98.8304 56.6462 99.2977 56.9559C100.317 57.6364 101.589 58.0078 102.901 58.0077H103.282C103.282 58.6043 103.282 59.2165 103.282 59.8288C103.282 60.7236 103.282 61.6185 103.148 62.5133H102.824C102.011 62.4575 101.193 62.5356 100.418 62.7432C99.6419 62.9508 98.9242 63.2835 98.3064 63.7221C97.0102 64.8054 96.8958 66.3439 96.4002 66.3125C95.9045 66.2811 96.1142 64.5385 95.0276 63.5808C94.4558 63.0628 92.7783 62.1365 86.1635 63.9576C77.8713 66.234 74.9356 69.2639 72.8197 68.212C72.5701 68.0733 72.3595 67.8923 72.2017 67.6811C72.0439 67.4699 71.9426 67.2335 71.9047 66.9875C71.5234 65.5746 71.9047 63.5023 69.9984 62.2778C68.6259 61.3673 66.9102 61.4144 64.0127 61.5243C60.8745 61.6482 57.7857 62.2164 54.8817 63.2041H54.6339C54.6081 58.1556 55.0414 53.1126 55.9302 48.1173V48.1173Z" fill="#F9ECEC"/>
<path d="M134.868 69.0598C134.106 69.0598 133.362 69.0598 132.638 69.154C129.74 69.3267 127.262 69.5936 125.261 69.8604C126.29 67.537 127.167 65.1508 127.834 62.9686C129.36 58.1577 130.317 53.2368 130.694 48.2744H131.38C133.497 50.7774 134.683 53.7341 134.792 56.7832C134.792 58.1019 134.563 58.6514 134.239 62.5604C133.801 68.0394 134.239 68.4946 134.506 68.6359C134.619 68.6537 134.736 68.6537 134.849 68.6359L134.868 69.0598Z" fill="#F8E9E9"/>
<path d="M108.962 106.266C109.846 105.246 111.168 104.539 112.66 104.288C112.965 104.288 114.566 104.053 115.043 104.665C115.252 104.948 115.157 105.262 115.043 105.717C114.928 106.172 114.776 106.329 114.661 106.722C114.351 107.624 114.254 108.568 114.375 109.5L114.738 110.442C111.542 111.238 108.28 111.841 104.978 112.248V111.777C106.662 110.131 108.008 108.27 108.962 106.266V106.266Z" fill="#F8DCDC"/>
<path d="M111.078 65.0252C111.25 61.1161 113.861 58.934 115.158 56.7204L119.504 57.2385C119.454 57.6573 119.58 58.0776 119.861 58.4291C120.142 58.7806 120.561 59.042 121.048 59.1694L124.422 61.383C122.821 62.8116 122.516 68.4475 117.998 70.2686C117.245 70.5932 116.408 70.7628 115.558 70.7628C114.708 70.7628 113.871 70.5932 113.118 70.2686C110.907 69.0598 111.04 65.92 111.078 65.0252Z" fill="#F8DCDC"/>
<path d="M77.0512 112.185C76.0027 111.651 74.7255 110.992 73.2386 110.191L72.7239 109.657C66.5027 102.861 61.9094 95.1519 59.1895 86.9409L59.6851 86.8153C61.7363 85.9511 63.9059 85.2923 66.1473 84.853C68.0354 84.5303 69.945 84.2997 71.8661 84.1622C78.3665 83.4244 78.2712 82.7807 82.1981 82.5923C87.1925 82.3411 89.1369 83.2988 90.1281 82.294C90.8335 81.5719 90.9478 79.9392 87.8597 75.8103C88.4677 75.6347 89.0496 75.403 89.5944 75.1196C90.3188 74.7585 90.5475 74.5073 90.8906 74.5858C91.5578 74.7428 91.3672 75.8417 92.0916 76.1557C92.3858 76.2503 92.7124 76.2503 93.0066 76.1557C94.4532 77.0468 95.7371 78.1042 96.8191 79.2955C97.7728 80.3789 98.5484 81.5613 99.1257 82.8121C94.3982 97.3336 86.5253 109.092 80.0631 111.698C79.1382 112.099 78.0913 112.268 77.0512 112.185V112.185Z" fill="#F8E9E9"/>
<path d="M23.1804 64.4914C23.4222 63.7627 23.389 62.9906 23.0851 62.2778C22.3607 60.9434 20.4354 61.1318 18.4719 60.1585C16.8885 59.3033 15.6838 58.0491 15.0378 56.5833C14.3918 55.1175 14.3393 53.5188 14.8882 52.0264C14.8882 52.0264 15.0216 51.7909 15.1932 51.5554C15.3985 51.2189 15.691 50.9236 16.05 50.6903C16.409 50.4571 16.8258 50.2915 17.271 50.2053C17.889 50.2275 18.495 50.353 19.0522 50.5743C19.6093 50.7957 20.1059 51.1081 20.5116 51.4926C20.9882 51.9165 20.9882 52.0892 21.3313 52.1834C22.0557 52.3875 22.8182 51.7595 23.8857 51.0216L24.572 50.5821C25.6248 49.9428 26.7713 49.4154 27.9842 49.0122H28.3273C28.5174 52.1394 28.944 55.2538 29.6045 58.3374C29.7952 59.2636 30.0239 60.1741 30.2717 61.1004C31.0723 64.0393 32.1168 66.9294 33.398 69.7505L33.1502 69.829C31.4345 69.672 29.6808 69.515 27.927 69.3895C25.6967 69.2168 23.4473 69.0755 21.2741 68.997H21.1407V68.5574C22.2059 67.356 22.9054 65.9616 23.1804 64.4914V64.4914Z" fill="#F9ECEC"/>
<path d="M56.5782 75.8103C57.6457 75.8103 65.2707 75.8103 69.5789 71.1791C70.6745 69.9666 71.4593 68.5832 71.8855 67.1131C71.9234 67.3591 72.0247 67.5955 72.1825 67.8067C72.3403 68.0179 72.551 68.1989 72.8005 68.3376C74.8593 69.3894 77.7949 66.3595 86.1443 64.0832C92.7591 62.2621 94.4366 63.1883 95.0085 63.7064C96.0951 64.664 95.8091 66.4066 96.381 66.438C96.9529 66.4694 97.0291 64.8681 98.2873 63.8477C98.905 63.4091 99.6227 63.0763 100.398 62.8688C101.174 62.6612 101.992 62.5831 102.805 62.6389H103.129C102.813 66.7292 102.176 70.7985 101.223 74.8213C100.613 77.5372 99.8695 80.206 99.0116 82.7964C98.4195 81.5321 97.6245 80.3389 96.6479 79.2484C95.5659 78.0571 94.2819 76.9997 92.8353 76.1086C93.0793 76.0649 93.307 75.9736 93.4994 75.8425C93.6917 75.7114 93.8432 75.5442 93.941 75.3551C94.5319 73.691 87.0784 71.2576 84.81 69.5778C84.7146 69.5778 84.2762 69.1697 83.9903 69.2795C83.7043 69.3894 83.609 70.4099 83.609 70.4099C83.609 70.4099 83.0943 72.6705 84.2571 73.5497C85.0578 74.1933 86.1634 73.8323 86.5637 74.4602C86.964 75.0882 86.1634 75.5748 86.4684 75.8417C86.7734 76.1086 87.2119 75.8417 87.8028 75.7318C90.8909 79.8607 90.7766 81.4934 90.0713 82.2155C89.08 83.2202 87.1356 82.2155 82.1412 82.5138C78.2143 82.7336 78.3287 83.3772 71.8092 84.0837C69.8881 84.2212 67.9785 84.4518 66.0904 84.7744C63.849 85.2138 61.6794 85.8726 59.6282 86.7368L59.1326 86.8624C57.8526 83.2247 56.8279 79.5293 56.0635 75.7946L56.5782 75.8103Z" fill="#F8DCDC"/>
<path d="M133.325 42.607C133.296 42.7209 133.296 42.8385 133.325 42.9524H130.904C130.867 41.261 130.656 39.5752 130.275 37.913C130.122 37.3321 129.665 35.7936 129.169 33.4702C129.169 33.4702 129.169 33.3603 129.169 33.2975L130.217 33.1562C132.419 34.5429 134.484 36.0704 136.394 37.7246C138.929 39.9068 139.215 40.6132 138.986 41.0528C138.224 42.3244 134.068 41.304 133.325 42.607Z" fill="#F8DCDC"/>
<path d="M43.653 39.7184C41.1968 40.5743 38.9246 41.7512 36.9239 43.2036L33.1113 42.9838C33.8357 42.3872 33.7595 41.8534 34.3123 40.5661C35.2654 38.2741 36.2185 38.4468 37.4385 36.0762C38.0391 35.0937 38.4201 34.0301 38.5632 32.9364V32.9364C40.331 32.1382 41.9977 31.1969 43.5386 30.1263C45.0377 29.088 46.4161 27.937 47.6561 26.6882L48.5902 27.3319C52.141 29.8619 55.5082 32.5615 58.6743 35.4169H58.9793C58.7125 36.2646 58.4456 37.0967 58.2168 37.913C58.2168 38.0857 58.1215 38.2584 58.0643 38.4311L57.4353 38.3055C57.4162 37.8502 50.4393 37.285 43.653 39.7184Z" fill="#F8DCDC"/>
<path d="M109.61 75.3551C106.892 75.5695 104.15 75.3888 101.509 74.8213V74.8213H101.299C102.252 70.7985 102.888 66.7293 103.205 62.6389C103.205 61.7441 103.319 60.8492 103.339 59.9544C103.339 59.3421 103.339 58.7299 103.339 58.1333C103.339 57.1129 103.339 56.1081 103.339 55.1348C103.207 52.8144 102.908 50.5026 102.443 48.2116L103.129 48.1174C104.883 47.8327 106.691 47.8678 108.427 48.2204C110.162 48.573 111.783 49.2345 113.175 50.1582C114.428 50.9594 115.359 52.0539 115.844 53.298C116.193 54.4484 116.002 55.665 115.31 56.7047C114.014 58.9183 111.497 61.1004 111.23 65.0095C111.23 65.9043 111.059 69.0441 113.365 70.2529C114.111 70.5696 114.938 70.7348 115.777 70.7348C116.616 70.7348 117.443 70.5696 118.188 70.2529C122.611 68.4318 123.011 62.7959 124.612 61.3673C124.813 61.182 125.093 61.0691 125.394 61.0533C125.89 61.0533 126.614 61.3516 127.51 62.8744H127.91C127.205 65.135 126.366 67.4428 125.337 69.7662C124.67 71.3361 123.907 72.906 123.087 74.4759L122.401 75.7162L122.001 75.6534C119.427 73.5183 117.693 73.2671 116.568 73.4555C115.443 73.6439 115.31 74.0521 113.709 74.5858C112.397 75.0098 111.015 75.2692 109.61 75.3551V75.3551Z" fill="#F8DCDC"/>
<path d="M146.782 74.9626C147.03 75.7789 145.257 76.1086 144.018 78.1024C142.779 80.0962 143.58 80.7084 142.36 81.98C141.623 82.6953 140.669 83.237 139.596 83.5499C137.787 84.22 136.15 85.1685 134.773 86.3444C135.192 84.4762 134.964 83.0633 134.22 82.8435C134.078 82.804 133.924 82.804 133.782 82.8435L132.485 78.7304C133.146 78.6812 133.791 78.5377 134.392 78.3065C135.965 77.7226 137.482 77.0403 138.929 76.2656C140.149 75.622 141.559 74.837 143.199 73.8951L143.313 73.691C145.086 74.1149 146.573 74.162 146.782 74.9626Z" fill="#F8DCDC"/>
<path d="M143.294 73.4712L143.179 73.6753C141.54 74.6173 140.129 75.4022 138.909 76.0459V75.9517C136.603 71.3833 135.84 70.4256 135.593 70.4884C135.345 70.5512 135.993 72.3095 135.593 74.7429C135.393 75.8748 134.989 76.9756 134.392 78.0082V78.0867C133.791 78.318 133.146 78.4614 132.485 78.5106C132.208 78.5285 131.934 78.4551 131.723 78.3065C131.322 77.9768 131.57 77.3332 131.913 75.6534C132.339 73.6437 132.619 71.615 132.752 69.5779V69.154C133.477 69.154 134.22 69.154 134.983 69.0598C135.745 68.9656 137.098 69.0598 138.223 68.9813V69.6564C139.338 71.2504 140.986 72.5472 142.97 73.3927L143.294 73.4712Z" fill="#F9ECEC"/>
<path d="M138.662 58.2589C138.662 61.7912 140.091 62.4034 139.405 64.5385C138.719 66.6736 136.145 68.683 134.849 68.683C134.736 68.7008 134.619 68.7008 134.506 68.683C134.144 68.5417 133.801 68.0865 134.239 62.6075C134.563 58.6985 134.792 58.149 134.792 56.8303C134.693 53.7651 133.507 50.7907 131.38 48.2743H130.693C130.846 46.3748 130.865 44.6165 130.808 43.0623H133.229C133.229 43.8001 134.468 44.7735 136.26 47.2853C137.637 48.8986 138.621 50.7167 139.157 52.6387C139.672 54.9464 138.604 55.1034 138.662 58.2589Z" fill="#F9ECEC"/>
<path d="M138.853 75.9516V76.0458C137.425 76.8238 135.927 77.5113 134.373 78.1024V78.0239C134.97 76.9912 135.375 75.8904 135.574 74.7585C135.974 72.3252 135.25 70.5983 135.574 70.5041C135.898 70.4099 136.546 71.3832 138.853 75.9516Z" fill="#F8DCDC"/>
<path d="M134.143 82.6394C134.887 82.8592 135.116 84.2093 134.696 86.1403C133.743 86.8624 132.79 87.7102 131.398 88.8091C130.902 89.2139 130.438 89.6438 130.007 90.0964C130.007 89.9237 130.14 89.7668 130.197 89.6098C130.84 88.0803 131.299 86.503 131.57 84.9001C131.622 84.2849 131.916 83.7004 132.409 83.236C132.733 82.9333 133.157 82.7151 133.629 82.608C133.799 82.5629 133.983 82.5742 134.143 82.6394V82.6394Z" fill="#F9ECEC"/>
<path d="M132.409 78.5106L133.706 82.6237C133.234 82.7308 132.81 82.949 132.486 83.2517C131.993 83.7161 131.699 84.3005 131.647 84.9158C131.376 86.5186 130.917 88.096 130.274 89.6255H130.084C125.585 90.5831 120.552 92.3257 119.39 95.701C119.256 96.1248 119.237 96.376 119.104 97.004C118.439 100.1 117.06 103.063 115.043 105.733V105.733C115.234 105.277 115.329 104.963 115.043 104.681C114.567 104.069 112.966 104.273 112.661 104.304C111.169 104.555 109.847 105.261 108.962 106.282C109.032 105.998 109.064 105.708 109.058 105.419C109.059 104.863 108.867 104.318 108.505 103.849C107.514 102.954 102.958 105.12 100.117 106.204C96.2812 107.644 92.1473 108.47 87.9363 108.637L87.6885 108.339C97.6582 102.781 113.004 92.2315 122.306 75.7476L122.993 74.5073C123.812 72.9374 124.575 71.3675 125.242 69.7976C127.243 69.5308 129.722 69.2639 132.619 69.0912V69.5151C132.486 71.5521 132.206 73.5809 131.78 75.5906C131.437 77.2704 131.189 77.914 131.59 78.2437C131.695 78.3345 131.822 78.4054 131.964 78.4515C132.105 78.4976 132.258 78.5178 132.409 78.5106V78.5106ZM111.174 102.247C113.976 102.86 117.846 98.5425 116.892 97.0825C115.939 95.6225 110.03 95.6382 108.867 98.0558C108.572 98.8661 108.643 99.737 109.067 100.508C109.491 101.278 110.239 101.896 111.174 102.247V102.247Z" fill="#F8DCDC"/>
<path d="M130.464 20.2831C130.788 20.4243 130.788 21.068 130.274 22.7007C129.92 23.806 129.481 24.8915 128.958 25.9504H127.929C127.929 24.9457 127.776 24.0979 127.738 23.3758C127.774 22.4083 127.586 21.4442 127.186 20.5342H128.272L129.168 20.3773C130.255 20.2517 130.35 20.236 130.464 20.2831Z" fill="#F9ECEC"/>
<path d="M127.72 23.4543H127.396C126.894 24.3665 126.006 25.0974 124.898 25.5108C124.376 25.7002 123.811 25.7981 123.24 25.7981C122.669 25.7981 122.104 25.7002 121.582 25.5108C120.769 25.005 120.188 24.287 119.936 23.4742C119.683 22.6614 119.773 21.802 120.19 21.0366L120.095 20.9738C124.06 19.3254 125.813 19.6551 126.576 20.1575C126.79 20.2852 126.966 20.4517 127.091 20.6441C127.512 21.5401 127.726 22.4934 127.72 23.4543V23.4543Z" fill="#F9ECEC"/>
<path d="M123.621 55.072C124.002 55.2604 123.621 56.2494 123.621 56.5163C123.316 57.317 122.401 59.1694 121.219 59.1694C120.732 59.042 120.313 58.7806 120.032 58.4291C119.751 58.0776 119.625 57.6573 119.675 57.2385C119.661 57.1762 119.661 57.1124 119.675 57.0501C119.846 56.7518 120.151 56.7518 120.952 56.4378C122.649 55.7314 123.259 54.8836 123.621 55.072Z" fill="#F9ECEC"/>
<path d="M120.095 20.8168V20.9424C117.679 22.007 115.371 23.2303 113.194 24.6003V23.9723C112.806 23.1754 112.707 22.3029 112.908 21.4605C113.17 20.4531 113.843 19.55 114.815 18.9016C116.652 19.3836 118.422 20.0256 120.095 20.8168V20.8168Z" fill="#F8E9E9"/>
<path d="M116.892 97.0824C117.846 98.5425 113.976 102.86 111.174 102.247C110.239 101.896 109.491 101.278 109.067 100.508C108.643 99.737 108.572 98.8661 108.867 98.0558C110.03 95.6381 115.996 95.7009 116.892 97.0824Z" fill="#F9ECEC"/>
<path d="M100.174 15.0553H100.021C97.7944 15.3517 95.7809 16.3192 94.3718 17.7698C92.9626 19.2204 92.2585 21.0506 92.3962 22.9048L92.1865 22.9833L90.833 20.4401C89.6766 18.2422 88.4057 15.9135 87.0205 13.454L87.5543 13.2499C88.0733 12.6063 88.7645 12.0693 89.5749 11.68C90.2393 11.3526 90.9684 11.1241 91.729 11.005C93.8068 11.994 95.6559 10.5654 97.7909 11.3661C99.5828 12.1667 99.4303 13.5953 100.174 15.0553Z" fill="#FFD8D8"/>
<path d="M96.7235 32.2457H95.961C96.7226 35.3372 96.2859 38.5475 94.7125 41.4236C93.1391 44.2996 90.5085 46.696 87.1922 48.2744C83.3797 50.0797 79.7959 50.1739 74.2868 50.3309C71.7902 50.4529 69.2848 50.3529 66.8142 50.0326C63.1042 49.5212 59.5384 48.4572 56.2916 46.8928H56.1582C56.6538 44.3025 57.2829 41.5238 58.0645 38.6195C58.0645 38.4468 58.1598 38.2741 58.217 38.1014H58.6363C62.994 36.6504 66.9257 34.4507 70.1693 31.6491C72.1718 29.4366 74.7179 27.5965 77.6418 26.2487C79.525 25.2449 81.7989 24.8637 84.0087 25.1812C86.0675 25.6835 86.5441 26.7511 89.0794 27.7715C90.8066 28.4435 92.6974 28.7818 94.6076 28.7605L94.9126 28.6663C95.5798 29.8595 96.1707 31.0055 96.7235 32.2457Z" fill="#F8E9E9"/>
<path d="M94.97 28.6192L94.665 28.7134C92.7549 28.7347 90.8641 28.3965 89.1368 27.7244C86.6015 26.7197 86.1249 25.6364 84.0662 25.1341C81.8564 24.8166 79.5824 25.1978 77.6993 26.2016C74.7754 27.5494 72.2292 29.3895 70.2267 31.602C66.9832 34.4036 63.0514 36.6033 58.6938 38.0543H58.2744C58.5032 37.238 58.77 36.4059 59.0369 35.5582C59.3038 34.7104 59.7422 33.4388 60.1235 32.4184L60.4285 32.4969C68.8556 26.2746 79.3023 22.2103 90.4903 20.8011L90.7762 20.6913L92.1487 23.156C93.1591 25.0242 94.0931 26.861 94.97 28.6192Z" fill="#F9ECEC"/>
<path d="M47.6563 26.6882C46.4935 25.8876 45.2925 25.1183 44.0916 24.4275L43.8438 24.1921L43.9391 24.0822C46.4722 22.5522 49.2335 21.2965 52.1551 20.3458C54.5951 19.5609 55.3767 19.5766 56.8445 19.137C62.7348 17.3944 66.5092 12.4806 71.5227 5.88705C74.1724 2.30769 75.5449 -0.109957 77.6037 -6.44897e-05C78.3853 -6.44897e-05 79.51 0.957573 81.9309 2.81005C84.3519 4.66253 83.8753 4.58404 85.9913 6.15394C87.1271 6.93559 88.209 7.76893 89.2319 8.65007C90.9285 10.22 90.6426 10.534 91.5385 11.0049C91.6042 11.0423 91.6745 11.0738 91.7482 11.0991C90.9876 11.2183 90.2585 11.4468 89.5941 11.7742C88.7837 12.1634 88.0925 12.7005 87.5735 13.3441L87.0397 13.5482L86.6394 12.826C85.0381 9.87459 82.6934 5.76146 79.0143 5.54168C73.1812 5.1806 67.5768 15.1494 64.0692 22.6693L61.5148 23.4385C59.8889 23.4353 58.2689 23.5988 56.692 23.9252C53.7492 24.5366 51.008 25.6788 48.6666 27.2691V27.2691L47.6563 26.6882Z" fill="#F8E9E9"/>
<path d="M90.7953 20.5499L90.5094 20.6598C79.3213 22.069 68.8747 26.1333 60.4476 32.3556L60.1426 32.2771C60.4666 31.3822 60.8288 30.4717 61.191 29.5455C61.5532 28.6192 62.3538 26.6411 63.2879 24.5375H63.5739C63.5739 24.6631 64.7367 26.2173 66.1664 26.1074C67.5961 25.9975 68.0726 24.8672 68.6636 23.9095C69.7692 22.0256 69.1592 21.5233 70.0361 19.9534C70.7795 18.6347 72.4761 16.8136 74.0964 16.9235C75.7168 17.0334 76.0027 18.6033 76.9558 18.4934C77.909 18.3835 77.7183 16.2798 78.9955 14.9297C79.9487 13.8936 82.0456 13.0144 86.9256 13.4854H87.04C88.3744 16.0077 89.6261 18.3625 90.7953 20.5499Z" fill="#FFD8D8"/>
<path d="M87.0401 13.5482H86.9258C82.0457 13.0772 79.9488 13.9564 78.9957 14.9925C77.7185 16.3426 78.0044 18.462 76.956 18.5562C75.9076 18.6504 75.5263 17.0805 74.0966 16.9863C72.6669 16.8921 70.7797 18.7289 70.0363 20.0162C69.1594 21.5861 69.7694 22.0885 68.6638 23.9723C68.0919 24.93 67.3675 26.1074 66.1665 26.1702C64.9656 26.233 63.6693 24.6945 63.574 24.6003H63.2881C63.5359 24.0037 63.8218 23.3758 64.1268 22.7321C67.5962 15.1495 73.2388 5.18065 79.072 5.54173C82.6939 5.76152 85.0386 9.87465 86.697 12.8261L87.0401 13.5482Z" fill="#F8E9E9"/>
<path d="M72.7431 109.657L73.2578 110.191C65.2963 105.806 58.0451 100.605 51.6788 94.7119C43.9706 87.5616 37.8821 79.3306 33.7028 70.4099C33.5884 70.1744 33.4931 69.9389 33.3978 69.7191C32.1166 66.8981 31.072 64.0079 30.2715 61.069L31.1102 60.912C32.5174 60.2765 34.1581 60.0867 35.7234 60.3782C37.1343 60.9002 38.4921 61.5144 39.7837 62.215C39.7837 62.215 40.7559 62.6546 42.0903 63.2041C43.4247 63.7535 46.246 64.4286 53.9854 63.2041H54.6717C54.6717 64.2507 54.6717 65.0827 54.6717 65.7002C54.896 69.1112 55.3671 72.5082 56.0823 75.8731C56.8467 79.6078 57.8714 83.3032 59.1514 86.9409C61.8887 95.1553 66.5015 102.865 72.7431 109.657Z" fill="#F8DCDC"/>
<path d="M70.0363 62.2778C71.9425 63.5809 71.5041 65.6531 71.9425 66.9875C71.5237 68.4742 70.7386 69.8741 69.6359 71.1007C65.3278 75.8104 57.7027 75.8104 56.6352 75.7319H56.1968C55.4815 72.367 55.0105 68.97 54.7861 65.5589C54.7861 64.931 54.7861 64.0989 54.7861 63.0628H55.0339C57.9379 62.0752 61.0267 61.5069 64.165 61.383C66.9481 61.4144 68.6256 61.3673 70.0363 62.2778Z" fill="#F8E9E9"/>
<path d="M61.5724 23.4386L64.1268 22.6693C63.8218 23.313 63.5359 23.9409 63.2881 24.5375C62.354 26.6412 61.6487 28.4151 61.1912 29.5455C60.7337 30.6758 60.4668 31.3822 60.1427 32.2771C59.7615 33.3237 59.3993 34.3703 59.0561 35.4169H58.7511C55.585 32.5615 52.2178 29.8619 48.667 27.3319V27.3319C51.0084 25.7416 53.7496 24.5995 56.6924 23.988C58.2845 23.6366 59.9241 23.452 61.5724 23.4386V23.4386Z" fill="#F8DCDC"/>
<path d="M57.4927 38.3683L58.1218 38.4939C57.283 41.3982 56.654 44.1769 56.2155 46.7672L55.9868 48.1173H55.6246C54.8049 48.1173 53.7183 48.1173 52.2886 48.2586C48.5599 48.6774 44.8891 49.3924 41.3276 50.3937C36.4476 51.6025 35.8757 51.9636 35.4182 52.5131C34.2744 54.083 35.2085 55.6529 33.7597 57.003C32.8942 57.7174 31.742 58.1472 30.5191 58.2118L29.6613 58.3374C29.0007 55.2539 28.5741 52.1394 28.3841 49.0122C28.3841 48.4627 28.3841 47.8976 28.2697 47.3324C28.2697 46.2178 28.1553 45.0874 28.1172 43.9257H28.8606C29.6056 44.0383 30.3714 44.0167 31.1053 43.8622C31.8391 43.7077 32.5236 43.4241 33.1116 43.0309L36.9241 43.2507C36.5048 43.596 36.2951 43.8472 36.3713 43.9414C36.6001 44.2868 39.6692 42.8896 45.693 41.2098C53.4705 38.9962 57.4927 38.7451 57.4927 38.3683Z" fill="#F8DCDC"/>
<path d="M55.5678 48.0859H55.93C55.054 53.0819 54.6335 58.1249 54.6719 63.1727H53.9856C46.2462 64.3972 43.2724 63.6436 42.0905 63.1727C40.9086 62.7017 39.784 62.1836 39.784 62.1836C38.4923 61.483 37.1345 60.8688 35.7236 60.3468C34.1583 60.0553 32.5176 60.2451 31.1104 60.8806L30.2717 61.0376C30.0239 60.1114 29.7951 59.2008 29.6045 58.2746L30.4623 58.149C31.6852 58.0844 32.8375 57.6546 33.703 56.9402C35.1517 55.5744 34.2177 53.9574 35.3614 52.4503C35.8189 51.8537 36.3908 51.5397 41.2708 50.3309C44.8356 49.3563 48.5063 48.6675 52.2319 48.2743C53.6044 48.1173 54.7481 48.0859 55.5678 48.0859Z" fill="#F9ECEC"/>
<path d="M51.679 94.7119L51.2215 95.1044C38.3733 99.0449 34.1604 98.5739 32.9595 97.1453C31.301 95.1986 34.5036 90.4732 32.502 89.4057C31.5679 88.9033 30.5957 89.7668 29.7379 89.2487C28.1366 88.244 31.5298 84.6332 30.2907 80.0648C29.8332 78.4007 29.2804 78.4949 28.5369 76.2656C27.8264 74.1413 27.6065 71.926 27.8888 69.7349V69.3581C29.6426 69.4837 31.3963 69.6407 33.112 69.7977L33.3598 69.7192C33.4551 69.939 33.5504 70.1744 33.6648 70.4099C37.8557 79.333 43.9571 87.5641 51.679 94.7119V94.7119Z" fill="#F8DCDC"/>
<path d="M44.1486 24.4276C45.3495 25.1341 46.5505 25.8876 47.7133 26.6883C46.4631 27.9494 45.0717 29.111 43.5577 30.1577C42.0167 31.2283 40.35 32.1697 38.5823 32.9679V32.9679C38.6253 32.5581 38.5932 32.1453 38.487 31.7433C38.0676 30.1734 37.1717 29.8752 37.1907 28.9332C37.2098 27.9913 38.5061 26.4057 44.0152 24.6788L44.1486 24.4276Z" fill="#F8E9E9"/>
<path d="M40.8892 108.668L40.527 109.359C33.7026 111.306 31.6819 111.086 31.2054 110.442C30.9766 110.128 31.2054 109.783 31.2054 108.621C31.2597 107.528 31.1702 106.433 30.9385 105.356L31.396 104.508C34.4628 106.041 37.6322 107.43 40.8892 108.668V108.668Z" fill="#F9ECEC"/>
<path d="M28.3268 48.9808H27.9837C26.7708 49.384 25.6243 49.9115 24.5715 50.5507L23.8852 50.9903C23.3207 50.733 22.8644 50.3405 22.5769 49.8648C22.2893 49.3892 22.184 48.8528 22.275 48.3267C22.3659 47.8007 22.6488 47.3098 23.0862 46.9192C23.5235 46.5285 24.0947 46.2565 24.724 46.1393V46.0451L25.1052 46.2806C25.8509 46.7507 26.6892 47.1118 27.5834 47.3481H28.1934C28.2315 47.8662 28.2696 48.4313 28.3268 48.9808Z" fill="#F8DCDC"/>
<path d="M24.7819 46.0137V46.1079C24.1526 46.2252 23.5814 46.4971 23.1441 46.8878C22.7067 47.2784 22.4238 47.7693 22.3329 48.2954C22.2419 48.8214 22.3472 49.3578 22.6347 49.8335C22.9223 50.3091 23.3786 50.7016 23.9431 50.9589V50.9589C22.8756 51.6967 22.0369 52.3247 21.3887 52.1206C21.0456 52.0264 21.0456 51.8537 20.569 51.4298C20.1633 51.0453 19.6667 50.7329 19.1095 50.5116C18.5524 50.2902 17.9464 50.1647 17.3284 50.1425C16.876 50.2355 16.4547 50.4107 16.0951 50.6551C15.7356 50.8996 15.447 51.2072 15.2506 51.5554L9.98926 49.8442C10.9291 48.655 11.7637 47.4116 12.4865 46.1236C14.2021 43.6745 15.7652 41.4139 18.4721 40.7231C19.4727 40.4949 20.5182 40.4315 21.5486 40.5365C22.579 40.6416 23.5741 40.9131 24.4769 41.3354C23.9332 41.7123 23.5225 42.2025 23.2878 42.7549C23.0531 43.3072 23.0029 43.9014 23.1425 44.4752C23.4649 45.1244 24.0421 45.6661 24.7819 46.0137V46.0137Z" fill="#F8E9E9"/>
<path d="M23.6186 72.0269C24.3917 73.1222 24.6302 74.4186 24.2858 75.6534C24.0352 76.3197 23.6271 76.9386 23.0849 77.4745C22.6818 77.9266 22.2218 78.3423 21.7124 78.7147L21.6171 78.6205C21.4336 77.7162 21.4336 76.7931 21.6171 75.8889C21.8957 74.4873 22.5825 73.1622 23.6186 72.0269V72.0269Z" fill="#F8E9E9"/>
<path d="M23.0848 62.2778C23.3887 62.9906 23.422 63.7627 23.1802 64.4914C22.9021 65.9438 22.2096 67.3212 21.1595 68.5103V68.9499L18.9482 68.8714V68.369C18.378 67.4595 17.6238 66.6366 16.7179 65.9357C15.9735 65.3657 15.1401 64.88 14.2398 64.4914C10.1604 62.5604 8.36847 62.6232 7.96816 61.4458C7.70128 60.6922 8.38754 60.4881 8.13972 59.1694C8.1154 58.7515 7.98989 58.3417 7.77056 57.9643C7.55123 57.5869 7.2425 57.2494 6.86252 56.9716C5.79502 56.3907 4.51782 56.8617 4.17469 56.2808C4.04125 56.0453 4.17469 55.9197 4.17469 55.2918C4.17469 54.6638 3.8125 54.6795 3.8125 54.4597C3.8125 53.8475 5.18501 53.4864 6.02377 53.1724C7.62503 52.5916 8.34941 51.6967 9.9888 49.8442L15.2501 51.5554C15.0785 51.7909 14.9832 51.9793 14.9451 52.0264C14.3963 53.5188 14.4488 55.1175 15.0947 56.5833C15.7407 58.0491 16.9455 59.3033 18.5289 60.1585C20.4351 61.1318 22.3605 60.9434 23.0848 62.2778Z" fill="#F8E9E9"/>
<path d="M77.0513 112.185L76.5557 112.311C74.9465 112.707 73.3107 113.027 71.6566 113.268C70.7987 113.409 69.8837 113.519 68.9497 113.598C65.7842 113.914 62.5838 113.914 59.4183 113.598C56.9125 113.327 54.4427 112.865 52.0411 112.216C49 111.438 46.0096 110.532 43.0816 109.5L40.8894 108.7C37.6195 107.462 34.4373 106.073 31.3581 104.54C26.2772 101.95 21.5201 98.9527 17.1564 95.5911C15.6042 94.4145 14.1401 93.1616 12.772 91.839C10.5417 89.6883 7.62511 84.9315 1.90632 75.4336C1.12223 74.4461 0.797322 73.2587 0.991312 72.0897C2.13507 69.2482 9.722 68.5889 18.8721 68.8714L21.0833 68.9499H21.2168C23.3899 68.9499 25.6393 69.1697 27.8696 69.3424C29.6234 69.468 31.3772 69.625 33.0928 69.782" stroke="#B22626" stroke-miterlimit="10"/>
<path d="M77.0509 112.185C76.0025 111.651 74.7253 110.992 73.2384 110.191C65.277 105.806 58.0257 100.605 51.6595 94.7119C43.958 87.5604 37.8761 79.3295 33.7025 70.4099C33.5881 70.1744 33.4928 69.939 33.3975 69.7192C32.1163 66.8981 31.0717 64.0079 30.2712 61.069C30.0234 60.1428 29.7946 59.2322 29.604 58.306C28.9434 55.2225 28.5169 52.1081 28.3268 48.9808C28.3268 48.4314 28.3268 47.8662 28.2124 47.301C28.2124 46.1864 28.098 45.0561 28.0599 43.8943C28.0218 42.7326 28.0599 41.3982 28.0599 40.1109C28.0599 38.0072 28.0599 35.8094 28.0599 33.5016C28.0599 26.1702 28.9177 22.6222 31.739 21.3349C34.5603 20.0476 39.3641 21.6018 43.8247 24.1921L44.225 24.4276C45.426 25.1341 46.6269 25.8876 47.7898 26.6883L48.7238 27.3319C52.2746 29.8619 55.6418 32.5616 58.808 35.4169" stroke="#B22626" stroke-miterlimit="10"/>
<path d="M77.0509 112.185C76.287 112.076 75.5569 111.844 74.9025 111.502C74.2482 111.16 73.6825 110.714 73.2383 110.191L72.7236 109.657C66.5024 102.861 61.9091 95.1519 59.1892 86.9409C57.9092 83.3032 56.8844 79.6078 56.1201 75.8732C55.4049 72.5083 54.9338 69.1113 54.7094 65.7002C54.7094 65.0723 54.7094 64.2402 54.7094 63.2041C54.671 58.1564 55.0916 53.1134 55.9676 48.1174L56.1963 46.7672C56.692 44.1769 57.321 41.3982 58.1026 38.4939C58.1026 38.3212 58.1979 38.1485 58.2551 37.9758C58.4838 37.1595 58.7507 36.3274 59.0176 35.4797C59.2845 34.6319 59.7229 33.3603 60.1042 32.3399C60.4282 31.445 60.7904 30.5345 61.1526 29.6083C61.5148 28.682 62.3154 26.704 63.2495 24.6003C63.4973 24.0037 63.7833 23.3758 64.0883 22.7321C67.5958 15.1495 73.2383 5.18065 79.0715 5.54173C82.6934 5.76152 85.0381 9.87465 86.6966 12.8261L87.0969 13.5482C88.4313 16.0182 89.7021 18.3469 90.9094 20.5343L92.1485 23.156C93.1588 25.087 94.0547 26.9237 94.9698 28.682C95.5798 29.9222 96.1707 31.1311 96.7235 32.3085C97.2763 33.4859 97.6385 34.318 98.0388 35.2913C99.917 39.4956 101.333 43.8302 102.271 48.243C102.736 50.534 103.036 52.8458 103.167 55.1662C103.167 56.1395 103.167 57.1443 103.167 58.1647C103.167 58.7613 103.167 59.3735 103.167 59.9858C103.167 60.8806 103.167 61.7755 103.033 62.6703C102.717 66.7606 102.08 70.8299 101.127 74.8527C100.517 77.5686 99.7735 80.2375 98.9157 82.8278C94.1882 97.3494 86.3153 109.108 79.8531 111.714C78.9881 112.077 78.0195 112.24 77.0509 112.185V112.185Z" stroke="#B22626" stroke-miterlimit="10"/>
<path d="M98.0774 35.2128C101.699 32.4498 104.845 30.1577 107.609 28.2739C108.867 27.4104 110.03 26.6255 111.116 25.9347C111.86 25.4637 112.546 25.0242 113.213 24.6317C115.384 23.2624 117.685 22.0392 120.095 20.9738V20.9738C124.06 19.3254 125.814 19.6551 126.576 20.1575C126.79 20.2852 126.966 20.4517 127.091 20.6441C127.513 21.5401 127.726 22.4934 127.72 23.4543C127.72 24.1764 127.72 25.0242 127.91 26.0289C128.123 28.4765 128.492 30.9132 129.016 33.3289C129.016 33.3289 129.016 33.4388 129.016 33.5016C129.512 35.8251 129.969 37.3636 130.122 37.9444C130.503 39.6066 130.714 41.2924 130.751 42.9838C130.751 44.5537 130.751 46.2963 130.636 48.1959C130.26 53.1852 129.296 58.1327 127.758 62.9686C127.053 65.2292 126.214 67.537 125.184 69.8604C124.517 71.4303 123.755 73.0002 122.935 74.5701L122.249 75.8104C113.003 92.2315 97.658 102.781 87.6882 108.339C84.9051 109.909 82.5413 111.086 80.8447 111.887" stroke="#B22626" stroke-miterlimit="10"/>
<path d="M125.26 69.8604C127.262 69.5936 129.74 69.3267 132.638 69.154C133.362 69.154 134.105 69.154 134.868 69.0598C135.63 68.9656 136.984 69.0598 138.109 68.9813C139.233 68.9028 140.987 68.9813 142.531 68.9813C149.794 69.2325 153.778 69.4209 155.456 71.5716C156.275 72.6235 157.228 75.0725 150.652 84.1308C146.001 90.6616 141.464 96.9412 133.438 102.31C128.698 105.452 123.349 107.915 117.616 109.595C116.644 109.893 115.71 110.144 114.719 110.395C111.523 111.19 108.261 111.794 104.959 112.201C96.934 113.168 88.7774 113.126 80.7682 112.075H80.1963" stroke="#B22626" stroke-miterlimit="10"/>
<path d="M49.9248 11.7742C49.9836 12.1211 49.9515 12.4743 49.8304 12.8101C49.7094 13.1458 49.5023 13.4563 49.2231 13.7205C48.944 13.9848 48.5993 14.1966 48.2123 14.3418C47.8252 14.487 47.4049 14.5621 46.9796 14.5621C46.5544 14.5621 46.134 14.487 45.747 14.3418C45.36 14.1966 45.0153 13.9848 44.7361 13.7205C44.457 13.4563 44.2499 13.1458 44.1289 12.8101C44.0078 12.4743 43.9756 12.1211 44.0345 11.7742C43.9756 11.4274 44.0078 11.0741 44.1289 10.7384C44.2499 10.4026 44.457 10.0922 44.7361 9.82794C45.0153 9.56371 45.36 9.35186 45.747 9.20668C46.134 9.06151 46.5544 8.98639 46.9796 8.98639C47.4049 8.98639 47.8252 9.06151 48.2123 9.20668C48.5993 9.35186 48.944 9.56371 49.2231 9.82794C49.5023 10.0922 49.7094 10.4026 49.8304 10.7384C49.9515 11.0741 49.9836 11.4274 49.9248 11.7742V11.7742Z" stroke="#B22626" stroke-width="0.75" stroke-miterlimit="10"/>
<path d="M108.771 3.40668V8.72863" stroke="#B22626" stroke-width="0.75" stroke-miterlimit="10"/>
<path d="M104.845 5.99701H108.657H111.993" stroke="#B22626" stroke-width="0.75" stroke-miterlimit="10"/>
<path d="M69.6738 125.56L72.2092 123.629L74.4585 121.918" stroke="#B22626" stroke-width="0.75" stroke-miterlimit="10"/>
<path d="M70.0361 121.604L72.2093 123.629L74.3443 125.56" stroke="#B22626" stroke-width="0.75" stroke-miterlimit="10"/>
</g>
<defs>
<clipPath id="clip0_133_387">
<rect width="157" height="126" fill="white"/>
</clipPath>
</defs>
</svg>
