<svg width="103" height="100" viewBox="0 0 103 100" fill="none" xmlns="http://www.w3.org/2000/svg">
<path d="M83.873 98.4375H20.123C15.7402 98.4375 12.1543 94.9219 12.1543 90.625V9.375C12.1543 5.07812 15.7402 1.5625 20.123 1.5625H52.5559C54.7074 1.5625 56.6996 2.34375 58.2137 3.82813L89.5309 34.5313C91.0449 36.0156 91.8418 37.9687 91.8418 40.0781V90.625C91.8418 94.9219 88.2559 98.4375 83.873 98.4375ZM20.123 4.6875C17.4934 4.6875 15.3418 6.79688 15.3418 9.375V90.625C15.3418 93.2031 17.4934 95.3125 20.123 95.3125H83.873C86.5027 95.3125 88.6543 93.2031 88.6543 90.625V40.0781C88.6543 38.8281 88.1762 37.6562 87.2199 36.7969L55.9027 6.09375C55.0262 5.15625 53.8309 4.6875 52.5559 4.6875H20.123Z" fill="#D21E2A"/>
<path d="M46.4199 69.5312H43.2324V45.7031C43.2324 44.2969 44.1887 43.0469 45.5434 42.6562L62.2777 38.3594C63.234 38.125 64.2699 38.2812 65.0668 38.9062C65.8637 39.5312 66.3418 40.3906 66.3418 41.4062V65.1562H63.1543V41.4062L46.4199 45.7031V69.5312Z" fill="#D21E2A"/>
<path d="M38.8496 73.4375C42.1504 73.4375 44.8262 71.6886 44.8262 69.5312C44.8262 67.3739 42.1504 65.625 38.8496 65.625C35.5488 65.625 32.873 67.3739 32.873 69.5312C32.873 71.6886 35.5488 73.4375 38.8496 73.4375Z" fill="#D21E2A"/>
<path d="M38.8496 75C34.6262 75 31.2793 72.5781 31.2793 69.5312C31.2793 66.4844 34.6262 64.0625 38.8496 64.0625C43.073 64.0625 46.4199 66.4844 46.4199 69.5312C46.4199 72.5781 43.073 75 38.8496 75ZM38.8496 67.1875C36.3793 67.1875 34.4668 68.4375 34.4668 69.5312C34.4668 70.625 36.3793 71.875 38.8496 71.875C41.3199 71.875 43.2324 70.625 43.2324 69.5312C43.2324 68.4375 41.3199 67.1875 38.8496 67.1875Z" fill="#D21E2A"/>
<path d="M58.7715 69.375C62.0722 69.375 64.748 67.4862 64.748 65.1562C64.748 62.8263 62.0722 60.9375 58.7715 60.9375C55.4707 60.9375 52.7949 62.8263 52.7949 65.1562C52.7949 67.4862 55.4707 69.375 58.7715 69.375Z" fill="#D21E2A"/>
<path d="M58.7715 70.8594C54.548 70.8594 51.2012 68.3594 51.2012 65.0781C51.2012 61.875 54.548 59.2969 58.7715 59.2969C62.9949 59.2969 66.3418 61.7969 66.3418 65.0781C66.3418 68.3594 62.9949 70.8594 58.7715 70.8594ZM58.7715 62.5C56.4605 62.5 54.3887 63.75 54.3887 65.1563C54.3887 66.4063 56.2215 67.8125 58.7715 67.8125C61.3215 67.8125 63.1543 66.4063 63.1543 65.1563C63.1543 63.75 61.0824 62.5 58.7715 62.5Z" fill="#D21E2A"/>
</svg>
