<svg width="137" height="125" viewBox="0 0 137 125" fill="none" xmlns="http://www.w3.org/2000/svg">
<path d="M91.3938 62.5014C83.6336 59.6504 76.7475 47.1341 73.0803 38.4189C65.8227 21.1588 58.7527 10.7128 38.3378 11.1584C12.2486 11.7241 10.7119 33.9941 10.7119 33.9941V108.176C10.7119 111.267 13.4433 113.774 16.8062 113.774H118.795C122.156 113.774 125.496 111.328 126.018 108.275C128.149 95.8078 130.567 66.3932 106.163 65.2702C100.033 64.9829 95.1797 63.8962 91.3938 62.5014V62.5014ZM119.356 108.416H15.6216V87.5569H21.6056V102.849H28.0515V87.5569H33.3431V102.849H39.7891V87.5569H45.0806V102.849H51.525V87.5569H56.8185V102.849H63.2629V87.5569H68.5595V102.849H75.0043V87.5569H80.2963V102.849H86.7407V87.5569H92.0357V102.849H98.4766V87.5569H103.772V102.849H110.219V87.5569H119.348V108.416H119.356Z" fill="#B22626"/>
</svg>
