<svg width="121" height="141" viewBox="0 0 121 141" fill="none" xmlns="http://www.w3.org/2000/svg">
<g clip-path="url(#clip0_133_378)">
<path d="M118.855 39.3044L80.9073 22.422C79.9871 22.0128 78.9572 22.5513 78.6065 23.6239C78.2558 24.6976 78.7173 25.8995 79.6374 26.3087L113.217 41.2477L89.9711 51.5906L60.7361 36.1441C59.8388 35.6698 58.7832 36.1345 58.3776 37.1805C57.9711 38.2275 58.3694 39.4593 59.2657 39.9337L85.279 53.6782L60.0009 64.9239L6.78507 41.2477L60.0009 17.5716L73.1151 23.407C74.0334 23.8152 75.0643 23.2778 75.4158 22.2041C75.7665 21.1314 75.3051 19.9295 74.3849 19.5203L60.6363 13.4028C60.227 13.2212 59.7747 13.2201 59.3655 13.4028L1.14717 39.3044C0.456855 39.6121 0 40.3856 0 41.2477V50.7456C0 51.6077 0.456855 52.3812 1.14717 52.6889L19.3271 60.7765V67.9837C19.3271 69.1322 20.1245 70.0638 21.1087 70.0638C22.0938 70.0638 22.8913 69.1322 22.8913 67.9837V62.363L59.3655 78.5905C59.5706 78.6813 59.7857 78.7272 60.0009 78.7272C60.216 78.7272 60.4312 78.6813 60.6363 78.5905L88.13 66.3587V99.273C79.4982 104.56 69.8191 107.394 60.0009 107.394C46.601 107.394 33.4575 102.122 22.8913 92.5295V76.3031C22.8913 75.1546 22.0938 74.223 21.1087 74.223C20.1245 74.223 19.3271 75.1546 19.3271 76.3031V93.537C19.3271 94.1684 19.5724 94.7656 19.9945 95.1598C31.3023 105.731 45.5106 111.553 60.0009 111.553C69.7734 111.553 79.4158 108.901 88.13 103.934V112.352C85.2579 113.268 83.1403 116.337 83.1403 119.975C83.1403 124.332 86.178 127.878 89.9116 127.878C93.6461 127.878 96.6839 124.332 96.6839 119.975C96.6839 116.337 94.5662 113.268 91.6942 112.352V101.738C94.5992 99.8094 97.3824 97.6149 100.008 95.1598C100.43 94.7656 100.677 94.1684 100.677 93.537V60.7754L118.855 52.6878C119.545 52.3812 120.002 51.6077 120.002 50.7445V41.2477C120.002 40.3856 119.545 39.6121 118.855 39.3044V39.3044ZM93.1197 119.975C93.1197 122.038 91.6804 123.717 89.9116 123.717C88.1437 123.717 86.7045 122.038 86.7045 119.975C86.7045 117.911 88.1437 116.231 89.9116 116.231C91.6804 116.231 93.1197 117.911 93.1197 119.975ZM3.5642 44.267L58.2183 68.5831V73.6279L3.5642 49.3118V44.267ZM61.7834 73.6279V68.5831L88.13 56.8609V61.9068L61.7834 73.6279ZM97.1114 92.5284C95.3728 94.1075 93.5628 95.5669 91.6942 96.9066V64.7722L97.1114 62.3619V92.5284ZM91.6942 60.3203V55.2754L116.438 44.267V49.3118L91.6942 60.3203Z" fill="#9E141E"/>
</g>
<defs>
<clipPath id="clip0_133_378">
<rect width="120.002" height="140.033" fill="white" transform="translate(0 0.411377)"/>
</clipPath>
</defs>
</svg>
