<svg width="16" height="34" viewBox="0 0 16 34" fill="none" xmlns="http://www.w3.org/2000/svg">
<g clip-path="url(#clip0_147_211)">
<path d="M14.9844 0.00693597L11.2497 0C7.05387 0 4.34234 3.22003 4.34234 8.20386V11.9864H0.587248C0.262763 11.9864 0 12.2909 0 12.6665V18.1469C0 18.5226 0.263064 18.8267 0.587248 18.8267H4.34234V32.6557C4.34234 33.0312 4.6051 33.3353 4.92958 33.3353H9.82891C10.1534 33.3353 10.4162 33.0309 10.4162 32.6557V18.8267H14.8067C15.1312 18.8267 15.394 18.5226 15.394 18.1469L15.3958 12.6665C15.3958 12.4861 15.3338 12.3134 15.2238 12.1858C15.1138 12.0582 14.964 11.9864 14.8082 11.9864H10.4162V8.77989C10.4162 7.23873 10.7335 6.45635 12.4679 6.45635L14.9838 6.45531C15.308 6.45531 15.5708 6.15081 15.5708 5.77559V0.686661C15.5708 0.311772 15.3083 0.00762957 14.9844 0.00693597Z" fill="#FFFCFA"/>
</g>
<defs>
<clipPath id="clip0_147_211">
<rect width="16" height="33.3353" fill="white"/>
</clipPath>
</defs>
</svg>
