<svg width="32" height="34" viewBox="0 0 32 34" fill="none" xmlns="http://www.w3.org/2000/svg">
<path d="M22.7046 0H9.2955C4.16994 0 0 4.43056 0 9.87647V24.1235C0 29.5694 4.16994 34 9.2955 34H22.7045C27.8301 34 32 29.5694 32 24.1236V9.87647C32 4.43056 27.8301 0 22.7046 0ZM29.5 24.1235C29.5 28.1048 26.4516 31.3438 22.7046 31.3438H9.2955C5.54844 31.3438 2.5 28.1048 2.5 24.1236V9.87647C2.5 5.89521 5.54844 2.65625 9.2955 2.65625H22.7045C26.4516 2.65625 29.5 5.89521 29.5 9.87647V24.1235Z" fill="#FFFCFA"/>
<path d="M16 7.83594C11.2441 7.83594 7.375 11.9469 7.375 17C7.375 22.0531 11.2441 26.1641 16 26.1641C20.7559 26.1641 24.625 22.0531 24.625 17C24.625 11.9469 20.7559 7.83594 16 7.83594ZM16 23.5078C12.6227 23.5078 9.875 20.5884 9.875 17C9.875 13.4116 12.6227 10.4922 16 10.4922C19.3773 10.4922 22.125 13.4116 22.125 17C22.125 20.5884 19.3773 23.5078 16 23.5078Z" fill="#FFFCFA"/>
<path d="M24.75 9.03125C25.4404 9.03125 26 8.43663 26 7.70312C26 6.96962 25.4404 6.375 24.75 6.375C24.0596 6.375 23.5 6.96962 23.5 7.70312C23.5 8.43663 24.0596 9.03125 24.75 9.03125Z" fill="#FFFCFA"/>
</svg>
